<svg width="100" height="100" viewBox="0 0 100 100" fill="none" xmlns="http://www.w3.org/2000/svg">
<g clip-path="url(#clip0_46_35)">
<path d="M28.1813 44.852C28.1813 46.0958 28.3146 47.102 28.5479 47.8416C28.8146 48.5812 29.1458 49.3875 29.6125 50.2604C29.7792 50.5291 29.8458 50.7979 29.8458 51.0333C29.8458 51.3687 29.6458 51.7041 29.2146 52.0416L27.1188 53.452C26.8188 53.6541 26.5208 53.7541 26.2542 53.7541C25.9208 53.7541 25.5896 53.5854 25.2563 53.2833C24.7896 52.7791 24.3917 52.2416 24.0583 51.7041C23.725 51.1333 23.3938 50.4958 23.0271 49.7229C20.4333 52.8125 17.1729 54.3583 13.2479 54.3583C10.4542 54.3583 8.225 53.552 6.59584 51.9395C4.96667 50.327 4.13542 48.177 4.13542 45.4895C4.13542 42.6354 5.13334 40.3166 7.1625 38.5708C9.19167 36.825 11.8854 35.95 15.3104 35.95C16.4417 35.95 17.6063 36.05 18.8354 36.2187C20.0646 36.3875 21.3292 36.6562 22.6604 36.9583V34.5062C22.6604 31.9541 22.1292 30.1729 21.0979 29.1312C20.0333 28.0895 18.2375 27.5854 15.6771 27.5854C14.5125 27.5854 13.3167 27.7187 12.0854 28.0229C10.8542 28.325 9.65834 28.6937 8.49375 29.1645C7.9625 29.4 7.5625 29.5333 7.32917 29.602C7.09584 29.6687 6.92917 29.702 6.79792 29.702C6.33125 29.702 6.1 29.3666 6.1 28.6604V27.0145C6.1 26.477 6.16667 26.075 6.33334 25.8395C6.5 25.6041 6.8 25.3687 7.26459 25.1333C8.42917 24.5291 9.825 24.025 11.4563 23.6208C13.0854 23.1833 14.8146 22.9833 16.6438 22.9833C20.6021 22.9833 23.4958 23.8895 25.3583 25.7041C27.1875 27.5187 28.1188 30.2729 28.1188 33.9666V44.85L28.1813 44.852ZM14.6771 49.9562C15.775 49.9562 16.9063 49.7541 18.1021 49.352C19.3 48.95 20.3646 48.2104 21.2625 47.202C21.7938 46.5645 22.1938 45.8583 22.3938 45.052C22.5938 44.2458 22.7271 43.2708 22.7271 42.1291V40.7187C21.7625 40.4833 20.7313 40.2812 19.6667 40.1479C18.6021 40.0145 17.5708 39.9458 16.5396 39.9458C14.3104 39.9458 12.6813 40.3833 11.5833 41.2895C10.4854 42.1958 9.95417 43.4729 9.95417 45.152C9.95417 46.7312 10.3542 47.9062 11.1854 48.7125C11.9833 49.5541 13.1479 49.9562 14.6771 49.9562ZM41.3854 53.5854C40.7875 53.5854 40.3875 53.4854 40.1208 53.25C39.8542 53.0479 39.6229 52.5791 39.4229 51.9395L31.6063 25.975C31.4063 25.3041 31.3063 24.8666 31.3063 24.6312C31.3063 24.0937 31.5729 23.7916 32.1042 23.7916H35.3646C35.9958 23.7916 36.4292 23.8916 36.6625 24.127C36.9292 24.3291 37.1271 24.7979 37.3271 25.4375L42.9146 47.675L48.1021 25.4375C48.2688 24.7666 48.4688 24.3291 48.7333 24.127C49 23.925 49.4646 23.7916 50.0646 23.7916H52.725C53.3563 23.7916 53.7896 23.8916 54.0563 24.127C54.3229 24.3291 54.5542 24.7979 54.6875 25.4375L59.9417 47.9437L65.6958 25.4375C65.8958 24.7666 66.1292 24.3291 66.3604 24.127C66.6271 23.925 67.0583 23.7916 67.6583 23.7916H70.7521C71.2833 23.7916 71.5833 24.0604 71.5833 24.6312C71.5833 24.8 71.55 24.9666 71.5167 25.1687C71.4833 25.3708 71.4167 25.6395 71.2833 26.0083L63.2688 51.9729C63.0688 52.6437 62.8354 53.0812 62.5708 53.2833C62.3063 53.4854 61.8729 53.6187 61.3063 53.6187H58.4458C57.8146 53.6187 57.3813 53.5187 57.1146 53.2833C56.8479 53.0479 56.6167 52.6125 56.4833 51.9395L51.3292 30.2729L46.2083 51.9062C46.0417 52.577 45.8417 53.0145 45.5771 53.25C45.3104 53.4854 44.8458 53.5854 44.2458 53.5854H41.3854ZM84.1229 54.4916C82.3938 54.4916 80.6646 54.2895 79.0021 53.8875C77.3396 53.4854 76.0417 53.0479 75.1771 52.5437C74.6458 52.2416 74.2792 51.9062 74.1458 51.6041C74.0125 51.302 73.9458 50.9666 73.9458 50.6645V48.952C73.9458 48.2458 74.2125 47.9104 74.7104 47.9104C74.9104 47.9104 75.1104 47.9437 75.3083 48.0104C75.5083 48.077 75.8063 48.2125 76.1396 48.3458C77.2708 48.85 78.5 49.252 79.7979 49.5208C81.1292 49.7895 82.425 49.9229 83.7562 49.9229C85.8521 49.9229 87.4813 49.5541 88.6125 48.8145C89.7438 48.075 90.3417 47 90.3417 45.6229C90.3417 44.6833 90.0417 43.9104 89.4437 43.2708C88.8458 42.6333 87.7146 42.0625 86.0854 41.525L81.2625 40.0125C78.8354 39.2395 77.0396 38.0979 75.9417 36.5854C74.8438 35.1083 74.2792 33.4625 74.2792 31.7145C74.2792 30.3041 74.5792 29.0604 75.1771 27.9854C75.775 26.9104 76.575 25.9708 77.5708 25.2312C78.5688 24.4583 79.7 23.8875 81.0292 23.4854C82.3604 23.0854 83.7562 22.9166 85.2208 22.9166C85.9521 22.9166 86.7167 22.95 87.45 23.05C88.2146 23.15 88.9125 23.2854 89.6125 23.4187C90.2771 23.5875 90.9104 23.7541 91.5083 23.9562C92.1063 24.1583 92.5729 24.3583 92.9063 24.5604C93.3729 24.8291 93.7042 25.0979 93.9042 25.4C94.1042 25.6687 94.2042 26.0375 94.2042 26.5083V28.0875C94.2042 28.7937 93.9375 29.1625 93.4396 29.1625C93.1729 29.1625 92.7417 29.0291 92.175 28.7604C90.2792 27.8875 88.15 27.45 85.7896 27.45C83.8938 27.45 82.3979 27.752 81.3667 28.3895C80.3354 29.027 79.8042 30.002 79.8042 31.3791C79.8042 32.3187 80.1375 33.125 80.8021 33.7645C81.4667 34.402 82.6979 35.0416 84.4604 35.6125L89.1833 37.125C91.5771 37.8979 93.3083 38.9729 94.3375 40.35C95.3667 41.727 95.8667 43.3062 95.8667 45.052C95.8667 46.4958 95.5667 47.8062 95.0021 48.9479C94.4042 50.0895 93.6042 51.0979 92.575 51.9041C91.5438 52.7437 90.3125 53.3479 88.8833 53.7854C87.3813 54.2562 85.8188 54.4916 84.1229 54.4916Z" fill="#252F3E"/>
<path d="M90.4083 70.8166C79.4667 78.9791 63.5688 83.3124 49.8979 83.3124C30.7417 83.3124 13.4792 76.1583 0.441671 64.2666C-0.589579 63.327 0.341671 62.0499 1.57292 62.7895C15.675 71.052 33.0688 76.0583 51.0625 76.0583C63.2021 76.0583 76.5396 73.5062 88.8104 68.2645C90.6417 67.4249 92.2042 69.4728 90.4083 70.8166ZM94.9646 65.577C93.5667 63.7624 85.7188 64.7041 82.1604 65.1395C81.0958 65.2728 80.9292 64.3333 81.8937 63.627C88.1458 59.1937 98.4229 60.4687 99.6208 61.9478C100.819 63.4603 99.2875 73.8395 93.4354 78.8103C92.5375 79.5833 91.6729 79.1791 92.0708 78.1728C93.4021 74.8478 96.3625 67.3562 94.9646 65.577Z" fill="#FF9900"/>
</g>
<defs>
<clipPath id="clip0_46_35">
<rect width="100" height="100" fill="white"/>
</clipPath>
</defs>
</svg>
