<svg width="100" height="100" viewBox="0 0 100 100" fill="none" xmlns="http://www.w3.org/2000/svg">
<path fill-rule="evenodd" clip-rule="evenodd" d="M16.6667 33.3334V59.6792C13.8646 60.2084 12.3937 60.4167 10.1625 60.4167C3.47917 60.4105 0 57.4271 0 51.7C0 46.1813 3.68958 42.6 9.40833 42.6C10.2958 42.6 10.9708 42.6688 11.7896 42.8792V33.3334H16.6667ZM11.7896 47.2334C11.1479 47.025 10.6208 46.9542 9.94375 46.9542C7.17708 46.9542 5.57708 48.6396 5.57708 51.5959C5.57708 54.473 7.10625 56.0605 9.90833 56.0605C10.5146 56.0605 11.0062 56.0271 11.7896 55.9209V47.2334Z" fill="#004D40"/>
<path fill-rule="evenodd" clip-rule="evenodd" d="M25 41.7625V55.55C25 59.875 24.6771 62.2666 23.725 64.0583C22.8375 65.7812 21.6688 66.8687 19.2542 68.0687L14.1771 65.675C16.5917 64.552 17.7625 63.5604 18.5083 62.0458C19.2896 60.4979 19.5375 58.3916 19.5375 53.677V41.7583H25V41.7625Z" fill="#004D40"/>
<path d="M25 33.3334H19.5354V38.9855H25V33.3334Z" fill="#004D40"/>
<path fill-rule="evenodd" clip-rule="evenodd" d="M28.6125 43.4917C30.9792 42.3417 33.2437 41.8354 35.7125 41.8354C38.4646 41.8354 40.2729 42.5917 41.0729 44.0709C41.5208 44.8979 41.6667 45.975 41.6667 48.2813V59.5459C39.2667 59.9021 36.2375 60.1584 34.0146 60.1584C29.5229 60.1584 27.5083 58.5375 27.5083 54.9396C27.5083 51.048 30.1854 49.25 36.7604 48.6771V47.4584C36.7604 46.4521 36.2708 46.0875 34.9187 46.0875C32.9396 46.0875 30.7104 46.6667 28.6187 47.7792L28.6125 43.4917ZM37.0021 52.3063C33.4562 52.6625 32.3042 53.2417 32.3042 54.6834C32.3042 55.7625 32.9667 56.2688 34.4292 56.2688C35.2292 56.2688 35.9604 56.1979 37.0021 56.0188V52.3063Z" fill="#004D40"/>
<path fill-rule="evenodd" clip-rule="evenodd" d="M44.6208 43.1105C47.7875 42.2334 50.3958 41.8334 53.0396 41.8334C55.7854 41.8334 57.775 42.4938 58.9542 43.7709C60.0625 44.975 60.4167 46.2959 60.4167 49.1105V60.1584H55.0542V49.3355C55.0542 47.173 54.3563 46.3688 52.4458 46.3688C51.7146 46.3688 51.0521 46.4417 49.975 46.775V60.1605H44.6208V43.1105Z" fill="#004D40"/>
<path fill-rule="evenodd" clip-rule="evenodd" d="M62.8688 62.5125C64.7833 63.525 66.7 63.9917 68.7271 63.9917C72.3125 63.9917 73.8396 63.0063 73.8396 59.4584V59.35C72.7771 59.8875 71.7042 60.1125 70.2896 60.1125C65.4937 60.1125 62.5 56.8896 62.5 51.7855C62.5 45.4459 66.9604 41.8646 74.9458 41.8646C77.2917 41.8646 79.4604 42.1167 82.0854 42.6625L80.2125 46.6834C78.7562 46.3959 80.0937 46.6396 78.9958 46.5334V47.1146L79.0667 49.4688L79.1021 52.5125C79.1375 53.275 79.1375 54.0334 79.1729 54.7959V56.3167C79.1729 61.098 78.7771 62.8396 77.6083 64.6917C75.9042 67.4042 72.9542 68.748 68.7625 68.748C66.6292 68.748 64.7833 68.425 62.8688 67.6625V62.5125ZM73.7333 46.3563H73.5562H73.1604C72.0979 46.3209 70.8521 46.6084 69.9979 47.1542C68.6896 47.9146 68.0125 49.2938 68.0125 51.2459C68.0125 54.0313 69.3646 55.625 71.7792 55.625C72.525 55.625 73.1313 55.4813 73.8354 55.2667V54.8646V53.3438C73.8354 52.6896 73.8 51.9646 73.8 51.2042L73.7646 48.6334L73.7292 46.7875V46.3563H73.7333Z" fill="#004D40"/>
<path fill-rule="evenodd" clip-rule="evenodd" d="M90.7625 41.7625C96.4979 41.7625 100 45.2208 100 50.8208C100 56.5624 96.35 60.1604 90.5333 60.1604C84.7917 60.1604 81.25 56.7041 81.25 51.1395C81.2604 45.3625 84.9104 41.7625 90.7625 41.7625ZM90.6437 55.7333C92.8458 55.7333 94.1458 53.9875 94.1458 50.9541C94.1458 47.9562 92.8813 46.175 90.6813 46.175C88.4042 46.175 87.1021 47.9208 87.1021 50.9541C87.1042 53.9875 88.4125 55.7333 90.6437 55.7333Z" fill="#004D40"/>
</svg>
