<svg width="100" height="100" viewBox="0 0 100 100" fill="none" xmlns="http://www.w3.org/2000/svg">
<path d="M71.4969 50.5407L89.0063 73.4376H87.6781C86.0359 73.4376 84.4891 72.6719 83.4906 71.3688L69.5312 53.1126L55.5703 71.3688C54.5734 72.6719 53.0266 73.4376 51.3844 73.4376H50.0562L67.5656 50.5407L50.4234 28.1251H51.7516C53.3937 28.1251 54.9406 28.8907 55.9391 30.1938L69.5328 47.9704L83.1266 30.1938C84.1219 28.8907 85.6703 28.1251 87.3109 28.1251H88.6391L71.4969 50.5407ZM44.5734 62.5001H45.5703C41.9016 72.0079 31.0516 77.5485 20.7328 73.8376C12.8359 70.9954 7.8125 63.1938 7.8125 54.8016V46.0938C7.8125 34.7032 17.6141 25.5579 29.2266 26.6516C39.3469 27.6048 46.875 36.5016 46.875 46.6657V53.1251H29.6875H10.9375V54.8579C10.9375 61.8907 15.1109 68.4594 21.7187 70.8704C29.2297 73.611 37.0859 70.5032 41.0766 64.4391C41.8578 63.2516 43.15 62.5001 44.5734 62.5001ZM10.9375 50.0001H43.75V46.0938C43.75 37.0469 36.3906 29.6876 27.3438 29.6876C18.2969 29.6876 10.9375 37.0469 10.9375 46.0938V50.0001Z" fill="url(#paint0_linear_46_40)"/>
<path d="M88.6391 28.125L71.4969 50.5422L89.0063 73.4375H87.6781C86.0359 73.4375 84.4891 72.6719 83.4906 71.3687L69.5313 53.1125L55.5703 71.3687C54.5734 72.6719 53.0266 73.4375 51.3844 73.4375H50.0563L67.5656 50.5422L50.4234 28.125H51.7516C53.3938 28.125 54.9406 28.8906 55.9391 30.1937L69.5328 47.9703L83.1266 30.1937C84.1219 28.8906 85.6703 28.125 87.3109 28.125H88.6391ZM94.9625 25H88.6391H87.3109C84.7125 25 82.2203 26.2312 80.6422 28.2953L69.5313 42.825L58.4203 28.2953C56.8422 26.2312 54.3484 25 51.7516 25H50.4234H44.1L47.9406 30.0234L63.6313 50.5422L47.5734 71.5391L43.7328 76.5625H50.0563H51.3844C53.9828 76.5625 56.475 75.3297 58.0531 73.2672L69.5313 58.2578L81.0094 73.2672C82.5875 75.3297 85.0797 76.5625 87.6781 76.5625H89.0063H95.3297L91.4891 71.5391L75.4313 50.5406L91.1219 30.0219L94.9625 25Z" fill="url(#paint1_linear_46_40)"/>
<path d="M27.3438 26.5625C27.9641 26.5625 28.5937 26.5922 29.2266 26.6516C39.3469 27.6047 46.875 36.5016 46.875 46.6656V53.125H29.6875H10.9375V54.8578C10.9375 61.8906 15.1109 68.4594 21.7187 70.8703C23.5937 71.5562 25.4906 71.875 27.3438 71.875C32.9109 71.875 38.0812 68.9891 41.0766 64.4406C41.8578 63.2516 43.15 62.5 44.5734 62.5H45.5703C42.6844 69.9766 35.3594 75 27.3438 75C25.1656 75 22.9375 74.6297 20.7328 73.8359C12.8359 70.9953 7.8125 63.1938 7.8125 54.8016V46.0938C7.8125 35.3234 16.5734 26.5625 27.3438 26.5625ZM10.9375 50H43.75V46.0938C43.75 37.0469 36.3906 29.6875 27.3438 29.6875C18.2969 29.6875 10.9375 37.0469 10.9375 46.0938V50ZM27.3438 23.4375C21.3 23.4375 15.6125 25.7953 11.3297 30.0797C7.04687 34.3625 4.6875 40.05 4.6875 46.0938V54.8016C4.6875 64.7203 10.7109 73.5516 19.675 76.7781C22.1625 77.6719 24.7422 78.125 27.3438 78.125C36.6422 78.125 45.1391 72.2984 48.4859 63.625L50.1266 59.375H45.5719H44.575C42.1297 59.375 39.8469 60.6266 38.4656 62.7219C36.0188 66.4406 31.7562 68.75 27.3438 68.75C25.8031 68.75 24.2703 68.4766 22.7891 67.9359C17.9828 66.1813 14.6281 61.5875 14.1281 56.25H29.6875H46.875H50V53.125V46.6656C50 34.7797 41.0031 24.6203 29.5188 23.5406C28.7969 23.4719 28.0656 23.4375 27.3438 23.4375ZM14.0625 46.875V46.0938C14.0625 38.7703 20.0203 32.8125 27.3438 32.8125C34.6672 32.8125 40.625 38.7703 40.625 46.0938V46.875H14.0625Z" fill="url(#paint2_linear_46_40)"/>
<defs>
<linearGradient id="paint0_linear_46_40" x1="48.4094" y1="33.1298" x2="48.4094" y2="67.9907" gradientUnits="userSpaceOnUse">
<stop stop-color="#6DC7FF"/>
<stop offset="1" stop-color="#E6ABFF"/>
</linearGradient>
<linearGradient id="paint1_linear_46_40" x1="69.5313" y1="25" x2="69.5313" y2="76.5625" gradientUnits="userSpaceOnUse">
<stop stop-color="#1A6DFF"/>
<stop offset="1" stop-color="#C822FF"/>
</linearGradient>
<linearGradient id="paint2_linear_46_40" x1="27.4063" y1="23.4375" x2="27.4063" y2="78.125" gradientUnits="userSpaceOnUse">
<stop stop-color="#1A6DFF"/>
<stop offset="1" stop-color="#C822FF"/>
</linearGradient>
</defs>
</svg>
