<svg width="100" height="100" viewBox="0 0 100 100" fill="none" xmlns="http://www.w3.org/2000/svg">
<path d="M16.6667 77.0834L48.4042 17.575C49.0729 16.3209 50.8813 16.3438 51.5167 17.6167L62.5 39.5834L16.6667 77.0834Z" fill="#FF8F00"/>
<path d="M16.6667 77.0666L28.2208 5.81872C28.5229 3.95413 31.0271 3.54997 31.9021 5.22497L54.1667 47.9L16.6667 77.0666Z" fill="#FFA000"/>
<path d="M16.6833 77.0541L17.1 76.727L53.6187 46.8499L43.3187 27.1083L16.6833 77.0541Z" fill="#FF6F00"/>
<path d="M16.6667 77.0834L72.2208 23.5146C73.3854 22.3917 75.3292 23.0542 75.5667 24.6542L83.3333 77.0834L52.0833 95.2979C50.8146 96.0104 49.2667 96.0104 47.9979 95.2979L16.6667 77.0834Z" fill="#FFC400"/>
</svg>
