<svg width="100" height="100" viewBox="0 0 100 100" fill="none" xmlns="http://www.w3.org/2000/svg">
<g clip-path="url(#clip0_46_19)">
<path d="M13.125 65.3125C11.4063 64.0625 9.6875 62.6562 8.4375 60.9375C5.9375 57.8125 3.90625 54.2187 2.5 50.3125C1.71875 47.8125 1.40625 45.1562 0.312501 42.8125C-0.781249 41.0937 0.468751 39.2187 2.34375 38.5937C3.125 38.4375 4.6875 37.6562 2.8125 38.2812C1.25 39.5312 1.09375 37.1875 2.65625 37.0312C3.75 36.875 4.21875 35.9375 3.75 35.1562C2.5 34.375 6.71875 33.4375 4.53125 32.3437C2.34375 30 7.5 29.5312 6.25 32.1875C5.9375 34.2187 9.84375 31.875 8.90625 34.2187C10.3125 35.3125 12.9688 34.375 12.8125 35.9375C14.2188 36.0937 14.6875 37.1875 15.9375 37.1875C17.1875 37.8125 19.6875 38.2812 20.1563 39.6875C18.75 40.9375 15.7813 37.8125 15.625 40.625C16.0938 44.8437 15.9375 49.2187 17.5 53.2812C18.2813 55.7812 20 57.6562 21.5625 59.5312C23.125 61.4062 25.1563 62.6562 27.3438 63.75C29.2188 64.6875 31.25 65.1562 33.2813 65.625C34.0625 65 35.625 62.6562 36.875 63.5937C36.875 64.6875 34.375 65.9375 36.7188 65.7812C38.125 65.3125 39.0625 66.875 40.3125 65.4687C41.4063 66.7187 44.8438 64.6875 44.0625 67.3437C42.9688 67.9687 41.5625 67.6562 40.4688 68.5937C38.75 67.8125 37.3438 69.375 35.4688 69.2187C33.2813 69.5312 31.25 69.6875 29.0625 69.6875C25.625 69.375 22.0313 69.2187 18.5938 68.125C16.7188 67.5 14.8438 66.4062 13.125 65.3125ZM16.0938 66.5625C17.9688 67.3437 19.6875 68.125 21.7188 68.4375C24.8438 68.9062 28.2813 69.5312 31.4063 68.9062C30 68.2812 28.4375 69.2187 27.0313 68.4375C25.3125 68.75 23.4375 68.2812 21.7188 68.125C19.6875 67.1875 17.5 66.5625 15.625 65.4687C13.2813 64.6875 16.875 66.5625 17.5 66.7187C18.9063 67.5 15.9375 66.25 15.4688 65.9375C14.2188 65.3125 14.0625 65.4687 15.3125 66.0937C15.625 66.4062 15.9375 66.5625 16.0938 66.5625ZM12.6563 64.2187C14.375 64.8437 12.6563 62.9687 11.875 63.125C11.5625 62.5 10.4688 62.0312 11.25 61.7187C10 62.1875 9.84375 60 9.21875 60.3125C7.8125 59.8437 8.75 58.2812 7.03125 57.3437C6.875 56.4062 5.46875 55.4687 5 54.0625C4.6875 53.2812 3.28125 51.0937 4.21875 53.125C5 55.1562 6.25 56.7187 7.5 58.4375C8.4375 60 9.375 61.7187 10.9375 62.6562C11.4063 63.2812 11.875 64.0625 12.6563 64.2187ZM20.4688 67.5C21.25 67.9687 24.6875 68.4375 22.5 67.6562C22.1875 67.8125 18.4375 66.5625 20.4688 67.5ZM12.3438 60.9375C13.125 61.5625 15.7813 61.0937 13.5938 60.4687C12.6563 60 10.4688 59.5312 11.875 60.7812L12.3438 60.9375ZM16.5625 63.125C18.5938 63.75 14.8438 61.875 16.0938 62.9687L16.4063 63.125H16.5625ZM20.1563 65.1562C22.1875 65.3125 18.4375 65 20.1563 65.1562ZM16.5625 62.0312C18.125 62.1875 14.6875 60.9375 16.25 61.875L16.5625 62.0312ZM21.875 65.3125C23.2813 64.5312 22.8125 67.3437 24.2188 65.625C25.625 64.5312 22.9688 66.875 24.6875 65.7812C25.9375 65 27.8125 66.25 29.0625 66.5625C29.8438 66.5625 30.7813 67.3437 31.5625 66.875C33.2813 66.4062 28.2813 66.25 29.5313 65.3125C27.9688 65.7812 26.875 64.8437 26.0938 63.75C24.375 63.2812 22.3438 62.5 21.4063 60.9375C21.0938 60.3125 21.875 61.0937 21.0938 60C20 59.0625 19.5313 57.9687 18.75 56.875C17.9688 56.4062 17.8125 55.1562 17.6563 56.875C17.6563 55.7812 16.7188 55 16.4063 55.3125C16.4063 54.2187 17.5 54.8437 16.7188 54.0625C16.5625 52.9687 15.9375 51.875 15.7813 50.625C15.4688 50 15.7813 48.75 14.8438 50.1562C15 51.5625 15.3125 48.4375 15.7813 49.375C16.4063 48.2812 15.625 48.4375 15.4688 48.5937C15.9375 47.6562 15.7813 46.4062 15.3125 46.875C15.4688 45.9375 15.625 43.4375 15 43.9062C15.4688 42.9687 15.7813 39.375 14.0625 40.7812C13.2813 40.7812 12.1875 41.0937 11.5625 41.25C13.4375 42.1875 11.4063 41.5625 10.625 41.4062C10.4688 42.3437 9.84375 41.875 8.90625 41.875C10.3125 42.0312 8.125 43.4375 7.34375 42.8125C6.25 43.2812 8.28125 44.6875 7.34375 45C7.5 45.625 5.625 44.8437 5.78125 46.25C4.6875 45.7812 5.625 47.9687 6.09375 47.1875C7.8125 47.6562 7.34375 48.75 7.34375 49.8437C7.03125 50.4687 5.9375 48.4375 7.03125 48.4375C6.09375 46.875 5.9375 47.8125 5.15625 48.5937C5 48.5937 7.1875 49.5312 5.78125 50C7.03125 50.1562 7.03125 51.25 7.1875 51.875C7.96875 52.6562 7.8125 51.0937 8.59375 51.875C8.125 51.0937 5.78125 49.6875 7.65625 50.1562C7.65625 49.375 7.34375 48.75 7.96875 48.75C8.59375 47.6562 7.34375 51.25 8.59375 50C9.375 50 9.375 49.2187 10 50.3125C10.9375 51.25 10.3125 51.875 9.0625 51.0937C9.21875 51.875 10.7813 52.1875 10.4688 53.4375C10.7813 54.5312 11.25 54.0625 11.5625 54.0625C11.875 55.1562 12.0313 54.375 12.0313 53.9062C13.2813 54.2187 12.9688 55 13.4375 55.4687C14.375 55.9375 12.1875 52.6562 13.75 54.5312C15.4688 56.0937 14.375 56.7187 12.8125 56.4062C13.75 56.4062 14.0625 57.6562 15.1563 57.6562C16.25 58.125 16.875 60.1562 15.1563 59.375C14.5313 58.75 12.1875 58.125 14.0625 59.2187C15.7813 60 17.1875 60.4687 18.75 61.4062C20 62.1875 20.4688 63.2812 20.9375 63.4375C20 63.9062 17.9688 63.125 19.375 62.8125C18.4375 62.6562 17.3438 62.1875 18.2813 63.2812C19.0625 63.9062 20.9375 63.9062 21.25 63.9062C20.9375 64.5312 20.4688 64.5312 21.25 64.6875C20.625 64.8437 21.7188 65 21.875 65.3125ZM20 60.1562C19.5313 59.5312 19.375 58.5937 19.8438 59.375C20.3125 59.5312 20.9375 61.0937 20 60.1562ZM16.5625 54.375C15.9375 52.9687 17.0313 53.5937 16.7188 54.6875L16.5625 54.375ZM10.625 50.4687C10.3125 50 9.84375 48.5937 10 48.125C10.1563 48.75 11.4063 51.0937 10.625 49.0625C9.6875 47.3437 11.7188 49.6875 11.875 50C12.0313 50.4687 11.25 49.8437 11.7188 50.9375C10.9375 49.8437 11.4063 51.5625 10.625 50.4687ZM7.65625 47.8125C7.03125 47.1875 6.40625 46.5625 7.65625 47.3437C8.125 47.3437 6.5625 45.9375 7.8125 46.875C8.90625 47.1875 8.28125 48.9062 7.65625 47.8125ZM7.96875 46.875C5.9375 45.1562 10.4688 47.8125 8.28125 47.1875L7.96875 46.875ZM13.75 50.1562C12.8125 49.6875 13.5938 46.5625 13.75 48.5937C14.5313 48.2812 13.75 49.6875 14.375 49.6875C14.2188 50.625 13.9063 50.9375 13.75 50.1562ZM8.4375 46.25C7.1875 44.5312 12.1875 47.9687 9.21875 46.7187C8.90625 46.5625 8.59375 46.5625 8.4375 46.25ZM12.5 48.4375C12.6563 48.5937 12.3438 46.875 12.5 48.4375ZM8.59375 45.625C9.375 45.4687 11.7188 47.0312 9.53125 46.0937C9.21875 45.7812 8.75 45.7812 8.59375 45.625ZM15.1563 48.9062C15.3125 47.3437 15.625 47.9687 15.1563 49.0625V48.9062ZM9.21875 45C9.53125 44.5312 8.4375 42.9687 9.375 44.375C9.84375 44.6875 10.625 45 9.84375 45.1562C10.9375 46.0937 9.53125 45.4687 9.21875 45ZM13.5938 45.1562C13.9063 45.9375 13.4375 44.5312 13.5938 45.1562ZM14.0625 44.2187C13.5938 43.5937 14.5313 41.0937 14.6875 42.6562C14.2188 43.75 14.5313 44.375 14.8438 42.9687C15.4688 41.7187 14.6875 45.3125 14.0625 44.2187ZM15.7813 61.25C16.875 61.5625 16.875 61.0937 15.9375 60.9375C15.3125 60.4687 13.5938 59.8437 15.1563 60.9375C15.1563 61.0937 15.625 61.0937 15.7813 61.25ZM11.7188 58.5937C12.3438 59.0625 14.0625 59.8437 12.6563 58.75C13.125 58.125 11.7188 57.8125 12.1875 57.5C10.9375 56.7187 11.25 56.875 12.0313 56.875C10.625 56.25 12.1875 56.25 12.1875 55.9375C11.5625 55.7812 9.375 55 10.7813 55.9375C9.375 55.3125 10.3125 56.25 10 56.0937C8.59375 55.7812 11.25 57.1875 9.84375 56.7187C10.625 57.3437 11.875 58.2812 10.1563 57.3437C9.84375 57.8125 11.4063 58.2812 11.7188 58.5937ZM25.9375 66.875C26.5625 66.25 25.9375 67.8125 26.875 66.7187C26.875 65.9375 26.875 65.4687 25.7813 66.4062C25.4688 66.5625 25.3125 67.3437 25.9375 66.875ZM16.0938 60.625C16.7188 61.25 19.2188 61.0937 16.875 60.625C16.5625 60.1562 14.8438 60.3125 16.0938 60.625ZM27.6563 67.3437C28.75 66.25 26.5625 67.5 27.6563 67.3437ZM5.15625 53.125C4.21875 51.7187 4.53125 51.0937 3.59375 50C3.4375 49.0625 2.03125 47.1875 2.8125 49.2187C3.75 50.4687 3.90625 52.3437 5.15625 53.125ZM28.4375 67.1875C29.375 66.5625 28.2813 66.5625 28.2813 67.1875H28.4375ZM30.1563 67.6562C31.4063 66.7187 29.375 67.5 29.8438 67.8125L30.1563 67.6562ZM8.4375 53.75C9.375 53.9062 12.1875 56.0937 10.625 53.9062C9.6875 53.5937 10.3125 51.5625 9.375 51.875C10 52.8125 9.84375 53.2812 8.59375 52.6562C7.03125 51.875 7.65625 52.9687 7.96875 53.2812C7.5 53.5937 8.4375 53.75 8.4375 53.75ZM4.0625 50.4687C4.21875 49.8437 2.5 46.5625 3.28125 48.9062C3.4375 49.375 3.4375 50.1562 4.0625 50.4687ZM23.5938 62.1875C23.4375 61.7187 22.8125 62.1875 23.5938 62.1875ZM33.75 66.875C34.6875 66.7187 36.875 67.3437 37.1875 66.5625C36.0938 66.5625 33.2813 65.7812 33.125 66.7187H33.4375L33.75 66.875ZM4.53125 46.4062C5.46875 46.0937 2.8125 45.625 4.375 46.4062H4.53125ZM1.5625 43.125C1.40625 42.1875 1.40625 40.4687 3.125 40.9375C0.937501 41.4062 4.6875 43.5937 4.21875 41.875C5.15625 41.875 6.09375 41.4062 5.46875 42.1875C7.34375 42.0312 8.59375 40.4687 10.3125 40.625C11.7188 40.4687 13.125 40.3125 14.6875 39.6875C15.9375 39.5312 17.0313 38.2812 16.4063 37.5C14.6875 37.3437 12.9688 37.5 11.25 37.9687C9.21875 38.4375 7.34375 39.2187 5.3125 39.5312C3.28125 39.8437 5.78125 40.3125 5.15625 40.3125C4.0625 40.625 6.40625 40.9375 5 41.25C4.21875 41.0937 3.28125 40.7812 3.59375 39.8437C1.5625 40.3125 1.48267e-06 41.0937 1.5625 43.125ZM6.09375 40.7812C6.5625 39.0625 8.4375 42.1875 6.875 40.9375C6.71875 40.7812 6.25 40.625 6.09375 40.7812ZM7.03125 40C7.03125 39.2187 8.90625 40.4687 7.34375 40.3125L7.03125 40ZM8.4375 39.375C9.0625 38.5937 12.3438 38.9062 10 39.2187C9.375 38.75 8.90625 39.5312 8.4375 39.375ZM13.75 38.5937C14.2188 37.5 15.4688 38.125 13.9063 38.4375C13.9063 38.5937 13.9063 39.0625 13.75 38.5937ZM4.21875 44.6875C5.46875 43.9062 2.96875 43.9062 4.21875 44.6875ZM41.25 66.875C42.3438 66.875 44.375 66.5625 42.1875 66.5625C41.875 66.5625 40.1563 66.5625 41.25 66.875ZM6.09375 44.375C6.875 44.375 7.34375 43.4375 5.9375 43.4375C3.75 43.2812 7.96875 44.2187 5.625 43.9062C5.3125 44.2187 6.09375 44.5312 6.09375 44.375ZM4.84375 37.8125C6.25 37.3437 8.28125 36.7187 9.0625 38.125C8.28125 37.3437 8.75 36.4062 9.375 37.6562C10.3125 38.9062 10.7813 37.0312 10.1563 36.7187C10.7813 37.6562 11.7188 37.9687 10.625 36.7187C11.7188 35.3125 8.4375 36.875 7.65625 36.875C7.34375 37.0312 3.90625 37.8125 4.84375 37.8125ZM5.78125 36.25C6.5625 35.625 8.75 36.5625 7.34375 35.625C7.1875 35.4687 4.375 36.4062 5.78125 36.25ZM8.75 36.4062C9.6875 36.4062 8.28125 35.1562 9.53125 35.625C9.375 35 8.125 34.8437 7.65625 34.6875C7.34375 35.1562 8.28125 36.4062 8.75 36.4062ZM7.5 33.9062C9.0625 33.75 7.03125 33.2812 7.1875 33.9062H7.5ZM5.15625 32.0312C4.0625 30.625 7.1875 32.3437 6.09375 30.7812C5.15625 30 4.21875 31.5625 5.15625 32.0312ZM19.5313 39.6875C20 38.75 17.3438 38.4375 19.2188 39.375C19.375 39.5312 19.375 39.8437 19.5313 39.6875Z" fill="url(#paint0_linear_46_19)"/>
<path d="M43.75 33.4375C43.5937 34.2187 43.4375 35.3125 43.4375 37.0313C43.4375 37.3438 43.2813 37.5 42.9688 37.5C42.6562 37.5 42.5 37.3438 42.3438 37.0313C42.0313 36.25 41.7187 35.625 41.4062 35.3125C41.0937 35 40.625 34.6875 40 34.6875C39.375 34.5313 37.8125 34.5313 35.4688 34.5313C34.8438 34.5313 34.5312 34.5313 34.375 34.6875C34.2187 34.6875 34.2187 35 34.2187 35.1562V42.5C34.2187 42.8125 34.375 42.8125 34.6875 42.8125C35.625 42.8125 37.0312 42.8125 38.9062 42.6562C39.2187 42.6562 39.5312 42.5 39.6875 42.3438C39.8437 42.1875 40 41.7188 40 40.9375C40 40.4688 40.3125 40.3125 40.7812 40.4687C41.0937 40.4687 41.25 40.7813 41.25 40.9375C40.9375 42.3438 40.7813 44.375 40.9375 46.7187C40.9375 47.0312 40.7812 47.1875 40.4687 47.1875C40.1562 47.1875 40 47.0312 39.8437 46.7187C39.5312 45.3125 39.0625 44.6875 38.2812 44.5312C37.5 44.375 36.25 44.375 34.5313 44.375C34.375 44.375 34.2187 44.375 34.2187 44.5312V51.875C34.2187 52.3438 34.375 52.8125 34.8437 52.9688C35.1562 53.125 35.7812 53.2813 36.875 53.4375C37.3437 53.4375 37.6562 53.75 37.5 54.0625C37.5 54.375 37.0312 54.5313 36.0937 54.5313C33.5937 54.375 31.4062 54.375 29.6875 54.5313C29.2187 54.5313 29.0625 54.375 29.0625 53.9062C29.0625 53.5937 29.2187 53.4375 29.6875 53.4375C30.7812 53.2813 31.25 52.3438 31.25 50.625V36.7188C31.25 35.9375 31.0937 35.4687 30.9375 35C30.625 34.6875 30.1562 34.2188 29.5312 33.9063C29.0625 33.75 28.9063 33.4375 29.0625 33.125C29.0625 32.9688 29.2187 32.8125 29.375 32.8125C29.5312 32.8125 29.8437 32.8125 30.1562 32.8125C30.7812 32.9688 32.5 32.9688 35 32.9688C37.9687 32.9688 40.625 32.9688 42.6562 32.8125C43.4375 33.125 43.75 33.125 43.75 33.4375Z" fill="url(#paint1_linear_46_19)"/>
<path d="M54.375 54.0625C54.375 54.5312 54.0625 54.6875 53.5937 54.6875C52.0312 54.5312 50.3125 54.5312 48.125 54.6875C47.6562 54.6875 47.3437 54.6875 47.3437 54.6875C47.1875 54.6875 47.1875 54.375 47.1875 54.2188C47.1875 53.9062 47.5 53.75 48.125 53.5937C48.75 53.4375 49.0625 52.8125 49.0625 52.0312V37.3437C49.0625 36.4062 48.9063 35.7813 48.75 35.4688C48.4375 35 48.125 34.6875 47.3437 34.5312C47.0312 34.375 46.875 34.2187 46.875 34.0625C46.875 33.75 47.1875 33.4375 47.6562 33.2812C48.4375 32.9687 49.2188 32.6562 50 32.1875C50.625 31.875 51.0937 31.5625 51.25 31.5625C51.7187 31.5625 51.875 31.875 51.875 32.3438C51.875 32.3438 51.875 32.8125 51.875 33.9062C51.875 35 51.875 36.0937 51.875 37.0312V51.5625C51.875 52.1875 52.0312 52.6563 52.3438 52.9688C52.6563 53.2813 53.2812 53.4375 54.0625 53.5937C54.0625 53.5937 54.375 53.75 54.375 54.0625Z" fill="url(#paint2_linear_46_19)"/>
<path d="M69.0625 52.9688C69.0625 53.125 68.5938 53.5937 67.8125 54.0625C67.0313 54.5312 66.25 54.6875 65.7812 54.6875C65.3125 54.6875 65 54.5312 64.6875 54.0625C64.375 53.5937 64.0625 53.4375 64.0625 53.4375C63.9062 53.4375 63.4375 53.5937 62.5 54.0625C61.5625 54.5312 60.625 54.6875 59.6875 54.6875C58.75 54.6875 58.125 54.375 57.5 53.9062C56.875 53.2812 56.5625 52.5 56.5625 51.5625C56.5625 49.6875 58.75 48.2812 62.9687 47.5C63.75 47.3437 64.0625 47.0312 64.0625 46.5625V45.4688C64.0625 43.75 63.2812 42.8125 61.7187 42.8125C61.25 42.8125 60.7812 43.2813 60.4688 44.0625C60 44.8438 59.5312 45.3125 58.75 45.4688C57.8125 45.625 57.3438 45.1562 57.3438 44.375C57.3438 43.9062 57.9687 43.2813 59.375 42.5C60.7812 41.7188 62.0312 41.4062 63.4375 41.4062C65.625 41.4062 66.7188 42.5 66.7188 44.5312V51.25C66.7188 51.875 67.0312 52.3438 67.6562 52.3438C67.8125 52.3438 67.9688 52.3438 68.2812 52.1875C68.5938 52.1875 68.75 52.0312 68.9062 52.0312C68.9062 52.3437 69.0625 52.5 69.0625 52.9688ZM64.0625 49.375C64.0625 49.0625 64.0625 48.9062 63.9063 48.9062C63.75 48.75 63.5937 48.75 63.2812 48.9062C60.625 49.2187 59.375 50 59.375 51.25C59.375 52.5 60 53.125 61.4062 53.125C61.875 53.125 62.5 52.9687 63.125 52.8125C63.75 52.5 64.0625 52.3437 64.0625 52.0312V49.375Z" fill="url(#paint3_linear_46_19)"/>
<path d="M81.25 51.0938C81.25 52.1875 80.7812 53.125 80 53.75C79.0625 54.375 77.9688 54.6875 76.4063 54.6875C75.4688 54.6875 74.375 54.5312 73.4375 54.375C72.5 54.2187 72.0312 54.0625 71.875 53.9062C71.7187 53.75 71.7188 52.9687 71.7188 51.7187C71.7188 51.0937 71.875 50.7812 72.0312 50.7812C72.3437 50.7812 72.5 50.9375 72.6562 51.25C73.4375 52.6562 74.8437 53.4375 76.5625 53.4375C78.125 53.4375 78.9062 52.9687 78.9062 51.875C78.9062 51.4062 78.75 51.0937 78.4375 50.7812C78.125 50.4687 77.3437 50 76.25 49.5312C74.6875 48.9062 73.5937 48.2812 73.125 47.6562C72.5 47.0312 72.3437 46.4062 72.3437 45.3125C72.3437 44.2187 72.8125 43.2812 73.75 42.6562C74.5312 42.0312 75.625 41.7188 77.0312 41.7188C77.9687 41.7188 78.75 41.7187 79.375 41.875C80.1562 42.0312 80.625 42.1875 80.625 42.3437C80.7812 42.9687 80.9375 43.75 81.0938 45C81.0938 45.1562 80.9375 45.3125 80.625 45.3125C80.3125 45.3125 80 45.3125 79.8437 45.1562C79.0625 43.75 77.9687 43.125 76.5625 43.125C75.1562 43.125 74.375 43.5937 74.375 44.5312C74.375 45 74.5312 45.4687 75 45.7812C75.3125 46.0937 76.25 46.4062 77.5 47.0312C78.9062 47.6562 79.8438 48.125 80.3125 48.5937C80.9375 49.2187 81.25 50 81.25 51.0938Z" fill="url(#paint4_linear_46_19)"/>
<path d="M100 53.9063C100 54.2188 99.6875 54.5313 99.2188 54.5313C98.4375 54.5313 97.5 54.5313 96.25 54.6875C95.625 54.8438 95.1562 54.6875 95 54.5313C93.2812 52.6563 91.875 50.7813 90.625 48.75C90.4687 48.5938 90.4687 48.4375 90.3125 48.4375C90.1562 48.4375 89.8438 48.5937 89.375 48.9062C88.9063 49.2187 88.5938 49.5312 88.5938 50.1562C88.5938 50.4687 88.5938 51.0937 88.5938 51.7187C88.5938 52.3437 88.75 52.8125 89.0625 53.125C89.2188 53.2813 89.8438 53.4375 90.625 53.4375C91.0938 53.4375 91.4062 53.75 91.4062 54.0625C91.4062 54.375 91.4063 54.5313 91.25 54.5313C91.0938 54.5313 90.9375 54.5313 90.625 54.5313C89.5313 54.375 87.6563 54.5313 85.1562 54.6875C84.5312 54.6875 84.2187 54.6875 84.0625 54.375C84.0625 54.375 84.0625 54.2187 84.0625 54.0625C84.0625 53.75 84.375 53.4375 85 53.2812C85.625 53.125 85.9375 52.5 85.9375 51.25V37.0313C85.9375 36.0938 85.7812 35.4688 85.625 35.1563C85.3125 34.6875 84.8437 34.375 84.0625 34.0625C83.75 33.9062 83.5938 33.75 83.5938 33.5938C83.5938 33.2813 83.9062 32.9688 84.375 32.8125C85.1562 32.5 85.9375 32.1875 86.7188 31.7187C87.3438 31.4062 87.6563 31.0938 87.8125 31.0938C88.2813 31.0938 88.4375 31.4062 88.4375 31.875C88.4375 31.875 88.4375 32.3438 88.4375 33.4375C88.4375 34.2188 88.4375 35.3125 88.4375 36.5625V46.7188C88.4375 47.0313 88.4375 47.1875 88.5938 47.1875C88.75 47.1875 89.0625 47.0313 89.375 46.7188C90.3125 46.0937 91.4062 45.1563 92.6562 43.9063C92.9687 43.5938 92.9688 43.4375 92.9688 43.2813C92.9688 42.9688 92.5 42.8125 91.7188 42.6562C91.4063 42.6562 91.0938 42.3438 91.25 42.0312C91.25 41.7187 91.4062 41.5625 91.875 41.5625C92.6562 41.7188 93.75 41.7188 95.3125 41.7188C96.4062 41.7188 97.3438 41.7188 98.4375 41.7188C98.75 41.7188 98.9062 41.875 98.9062 42.3438C98.9062 42.6563 98.5937 42.9688 98.125 42.9688C97.3437 42.9688 96.5625 43.125 95.7812 43.5938C94.6875 44.0625 93.5938 44.8438 92.5 46.0938C92.3438 46.0938 92.3437 46.25 92.3437 46.4063C92.3437 46.5625 92.5 46.875 92.9688 47.5C94.375 49.5312 95.625 51.0938 96.7188 52.1875C97.5 52.8125 98.2812 53.125 98.9062 53.125C99.375 53.125 99.6875 53.125 99.8438 53.2812C100 53.4375 100 53.75 100 53.9063Z" fill="url(#paint5_linear_46_19)"/>
</g>
<defs>
<linearGradient id="paint0_linear_46_19" x1="22.0297" y1="25.4328" x2="22.0297" y2="68.0765" gradientUnits="userSpaceOnUse">
<stop stop-color="#6DC7FF"/>
<stop offset="1" stop-color="#E6ABFF"/>
</linearGradient>
<linearGradient id="paint1_linear_46_19" x1="36.425" y1="29.4875" x2="36.425" y2="55.1313" gradientUnits="userSpaceOnUse">
<stop stop-color="#1A6DFF"/>
<stop offset="1" stop-color="#C822FF"/>
</linearGradient>
<linearGradient id="paint2_linear_46_19" x1="50.4828" y1="29.4875" x2="50.4828" y2="55.1312" gradientUnits="userSpaceOnUse">
<stop stop-color="#1A6DFF"/>
<stop offset="1" stop-color="#C822FF"/>
</linearGradient>
<linearGradient id="paint3_linear_46_19" x1="62.8328" y1="29.4875" x2="62.8328" y2="55.1313" gradientUnits="userSpaceOnUse">
<stop stop-color="#1A6DFF"/>
<stop offset="1" stop-color="#C822FF"/>
</linearGradient>
<linearGradient id="paint4_linear_46_19" x1="76.3891" y1="29.4875" x2="76.3891" y2="55.1312" gradientUnits="userSpaceOnUse">
<stop stop-color="#1A6DFF"/>
<stop offset="1" stop-color="#C822FF"/>
</linearGradient>
<linearGradient id="paint5_linear_46_19" x1="91.8484" y1="29.4875" x2="91.8484" y2="55.1313" gradientUnits="userSpaceOnUse">
<stop stop-color="#1A6DFF"/>
<stop offset="1" stop-color="#C822FF"/>
</linearGradient>
<clipPath id="clip0_46_19">
<rect width="100" height="100" fill="white"/>
</clipPath>
</defs>
</svg>
