<svg width="64" height="64" viewBox="0 0 64 64" fill="none" xmlns="http://www.w3.org/2000/svg">
<path d="M54.6667 32C54.6667 44.5333 44.5333 54.6667 32 54.6667C19.4667 54.6667 9.33333 44.5333 9.33333 32C9.33333 19.4667 19.4667 9.33333 32 9.33333C44.5333 9.33333 54.6667 19.4667 54.6667 32Z" fill="white"/>
<path d="M28 54.6667V47.3333C28 46.9333 28.2667 46.6667 28.6667 46.6667C29.0667 46.6667 29.3333 46.9333 29.3333 47.3333V54.6667H32V46C32 45.6 32.2667 45.3333 32.6667 45.3333C33.0667 45.3333 33.3333 45.6 33.3333 46V54.6667H36V47.3333C36 46.9333 36.2667 46.6667 36.6667 46.6667C37.0667 46.6667 37.3333 46.9333 37.3333 47.3333V54.6667H39.7333C40 54.2667 40 53.8667 40 53.2V48C40 45.0667 37.4667 41.0667 34.2667 41.0667H30.9333C27.8667 41.0667 25.2 45.2 25.2 48V53.2C25.2 53.7333 25.3333 54.2667 25.4667 54.6667H28ZM53.4667 35.2C53.4667 35.2 51.7333 34.6667 50.2667 34.6667H50.1333C48.6667 34.6667 46.2667 35.0667 46.2667 35.0667C46.1333 35.0667 46.1333 35.0667 46.1333 34.9333C46.1333 34.8 46.1333 34.8 46.2667 34.8C46.4 34.8 48.9333 34.4 50.4 34.4C51.8667 34.4 53.6 34.9333 53.7333 34.9333C53.8667 34.9333 53.8667 35.0667 53.8667 35.2C53.6 35.0667 53.6 35.2 53.4667 35.2ZM53.0667 36.2667C53.0667 36.2667 51.2 35.7333 49.6 35.7333C48.4 35.7333 45.6 36 45.4667 36C45.3333 36 45.3333 36 45.3333 35.8667C45.3333 35.7333 45.3333 35.7333 45.4667 35.7333C45.6 35.7333 48.4 35.4667 49.6 35.4667C51.3333 35.4667 53.0667 36 53.0667 36C53.2 36 53.2 36.1333 53.2 36.2667C53.2 36.1333 53.2 36.2667 53.0667 36.2667ZM10.4 35.2C10.2667 35.2 10.2667 35.2 10.2667 35.0667C10.2667 34.9333 10.2667 34.9333 10.4 34.8C11.4667 34.5333 13.6 34.1333 14.8 34.1333C15.8667 34.1333 19.4667 34.4 19.6 34.4C19.7333 34.4 19.7333 34.5333 19.7333 34.5333C19.7333 34.6667 19.6 34.6667 19.6 34.6667C19.6 34.6667 16 34.4 14.9333 34.4C13.4667 34.6667 11.4667 34.9333 10.4 35.2ZM10.9333 37.2C10.9333 37.2 10.8 37.2 10.8 37.0667C10.8 36.9333 10.8 36.9333 10.8 36.8C10.9333 36.8 12.6667 35.7333 14.6667 35.4667C16.4 35.2 20 35.6 20.2667 35.6C20.4 35.6 20.4 35.7333 20.4 35.7333C20.4 35.8667 20.2667 35.8667 20.2667 35.8667C20.2667 35.8667 16.5333 35.4667 14.8 35.7333C12.8 36.1333 10.9333 37.2 10.9333 37.2Z" fill="#455A64"/>
<path d="M18.9333 31.3333C18.9333 25.4667 25.0667 20 32.6667 20C40.2667 20 46.4 25.3333 46.4 31.3333C46.4 37.3333 42 41.3333 32.6667 41.3333C23.3333 41.3333 18.9333 37.2 18.9333 31.3333Z" fill="#455A64"/>
<path d="M38.1333 21.7333C38.1333 21.7333 40.4 18.6667 44.5333 18.6667C46.1333 20.2667 45.0667 25.0667 44.5333 26.4L38.1333 21.7333ZM27.2 21.7333C27.2 21.7333 24.9333 18.6667 20.8 18.6667C19.2 20.2667 20.2667 25.0667 20.8 26.4L27.2 21.7333ZM26.8 47.8667C26.8 47.8667 23.7333 47.8667 23.0667 47.8667C21.4667 47.8667 20 47.2 19.3333 45.8667C18.5333 44.4 17.8667 42.8 15.8667 41.4667C15.4667 41.2 15.7333 40.9333 16.4 40.9333C17.0667 41.0667 18.2667 41.2 19.2 42.4C20.1333 43.6 21.2 45.0667 22.9333 45.0667C24.6667 45.0667 26.5333 45.0667 27.6 43.8667L26.8 47.8667Z" fill="#455A64"/>
<path d="M32 5.33333C17.3333 5.33333 5.33333 17.3333 5.33333 32C5.33333 46.6667 17.3333 58.6667 32 58.6667C46.6667 58.6667 58.6667 46.6667 58.6667 32C58.6667 17.3333 46.6667 5.33333 32 5.33333ZM32 53.3333C20.2667 53.3333 10.6667 43.7333 10.6667 32C10.6667 20.2667 20.2667 10.6667 32 10.6667C43.7333 10.6667 53.3333 20.2667 53.3333 32C53.3333 43.7333 43.7333 53.3333 32 53.3333Z" fill="#00BCD4"/>
</svg>
