<svg width="63" height="61" viewBox="0 0 63 61" fill="none" xmlns="http://www.w3.org/2000/svg">
<path d="M55.125 47.0208C55.125 50.5309 52.1876 53.375 48.5625 53.375H14.4375C10.8137 53.375 7.875 50.5309 7.875 47.0208V13.9792C7.875 10.4691 10.8137 7.625 14.4375 7.625H48.5625C52.1876 7.625 55.125 10.4691 55.125 13.9792V47.0208Z" fill="#0288D1"/>
<path d="M15.75 24.1458H22.3125V45.75H15.75V24.1458ZM19.0116 21.6042H18.9748C17.0166 21.6042 15.75 20.191 15.75 18.4258C15.75 16.6225 17.0559 15.25 19.0496 15.25C21.0459 15.25 22.2758 16.6225 22.3125 18.4258C22.3125 20.1897 21.0459 21.6042 19.0116 21.6042ZM47.25 45.75H40.6875V34.1867C40.6875 31.3934 39.0797 29.4871 36.498 29.4871C34.5279 29.4871 33.4622 30.7732 32.9451 32.0161C32.7561 32.4609 32.8125 33.6911 32.8125 34.3125V45.75H26.25V24.1458H32.8125V27.4703C33.7588 26.0521 35.2406 24.1458 39.0311 24.1458C43.7273 24.1458 47.2487 27.0052 47.2487 33.3899L47.25 45.75Z" fill="white"/>
</svg>
