<svg width="100" height="100" viewBox="0 0 100 100" fill="none" xmlns="http://www.w3.org/2000/svg">
<path d="M0.00416667 73.0021H4.00417V58.2417L9.56042 70.8604C10.2458 72.4333 11.1833 72.9896 13.0229 72.9896C14.8625 72.9896 15.7625 72.4333 16.4479 70.8604L22.0042 58.5646V73.0021H26.0042V57.8812C26.0042 56.4292 25.4271 55.725 24.2354 55.3625C21.3875 54.4667 19.475 55.2396 18.6104 57.1792L12.9125 70.0125L7.39375 57.1792C6.56458 55.2417 4.61875 54.4667 1.76875 55.3625C0.577083 55.725 0 56.4271 0 57.8792V73L0.00416667 73.0021Z" fill="#00796B"/>
<path d="M28.0021 61.0022H32.0021V69.4501C31.9708 69.8668 32.1354 70.973 34.0646 71.0022C35.0479 71.0189 39.9417 71.0022 40.0021 71.0022V61.0022H44.0021C44.0187 61.0022 44.0021 73.4355 44.0021 73.4876C44.0229 76.5543 40.1937 76.9501 38.4333 77.0022H28.0042V75.0022C28.025 75.0022 37.9771 75.0043 38.0062 75.0022C40.2729 74.7626 40.0042 73.5147 40.0042 73.1355V73.0022H33.7292C30.25 72.9709 28.0312 71.4376 28.0062 69.6897C28.0021 69.5272 28.0812 61.0772 28.0021 61.0022Z" fill="#00796B"/>
<path d="M46.0021 73.0022H56.0167C57.3292 73.0022 58.6042 72.7272 59.6167 72.2522C61.3042 71.4772 62 70.4293 62 69.0522V66.2022C62 63.1272 58.1875 63.0022 56 63.0022H52C50.4271 63.0022 50.1875 62.0522 50 61.0022V59.0022C50.1875 58.2022 50.5375 57.1272 51.9229 57.0022C53.5333 57.0022 61.9979 57.0022 61.9979 57.0022V55.0022H52.4854C50.9125 55.0022 45.9979 55.1897 45.9979 59.0022V61.4751C45.9979 63.2251 47.5354 64.6501 50.8729 65.0001C51.2479 65.0251 51.6229 65.0501 51.9958 65.0501C51.9958 65.0501 55.8833 64.9751 55.9958 65.0001C58.2458 65.0001 57.9958 66.7501 57.9958 67.0001V69.0001C57.9958 69.2751 57.9333 71.0001 55.9729 71.0001C55.8229 71.0001 45.9958 71.0001 45.9958 71.0001V73.0022H46.0021Z" fill="#F57F17"/>
<path d="M84 68.9167C84 71.3313 85.3646 72.6854 88.9833 72.9563C89.3208 72.9792 89.6604 73 90 73H100V71H90.7604C88.6958 71 88 70.1333 88 68.8938V55H84V68.9167Z" fill="#F57F17"/>
<path d="M63.9667 69.0022V59.0022C63.9667 56.8772 65.0083 55.4105 67.9583 55.0022H69.3583H76.5396H77.6333C80.5833 55.4105 81.9667 56.8751 81.9667 59.0022V68.9647C81.9667 70.6876 81.5188 71.6126 80.0583 72.2126L83.1583 75.0001H78.6583L76.4292 73.0001H73.8104L69.3604 73.0251C68.7167 73.0251 68.0375 72.9355 67.2917 72.7314C65.0542 72.1209 63.9667 70.9459 63.9667 69.0022ZM67.9667 69.0022C68.1708 69.9751 68.9521 71.0022 70.3417 71.0022H74.225L72 69.0022H76.5313L77.6125 70.0064C77.6125 70.0064 78 69.6897 78 69.0022C78 68.3147 77.9667 59.0022 77.9667 59.0022C77.7625 58.098 76.8458 57.0022 75.4917 57.0022H70.3437C68.7833 57.0022 67.9687 58.1439 67.9687 59.2064L67.9667 69.0022Z" fill="#F57F17"/>
<path d="M96.2479 52.8937C94.1 52.8354 92.4604 53.0354 91.0583 53.625C90.6604 53.7937 90.025 53.7979 89.9583 54.2979C90.1771 54.5271 90.2104 54.8708 90.3854 55.1521C90.7187 55.6937 91.2854 56.4208 91.7896 56.8C92.3417 57.2166 92.9104 57.6625 93.5 58.0229C94.55 58.6625 95.7229 59.0291 96.7354 59.6708C97.3312 60.0479 97.9229 60.5271 98.5062 60.9521C98.7937 61.1646 98.9854 61.4916 99.3604 61.625C99.3604 61.6041 99.3604 61.5854 99.3604 61.5646C99.1646 61.3146 99.1125 60.9708 98.9333 60.7083C98.6687 60.4437 98.4042 60.1791 98.1396 59.9146C97.3646 58.8854 96.3771 57.9791 95.3312 57.2291C94.4958 56.6291 92.6271 55.8187 92.2771 54.8479C92.2562 54.8271 92.2375 54.8083 92.2146 54.7854C92.8062 54.7187 93.5 54.5041 94.0458 54.3583C94.9646 54.1125 95.7833 54.1771 96.7312 53.9312C97.1583 53.8083 97.5854 53.6875 98.0125 53.5646C98.0125 53.4833 98.0125 53.4021 98.0125 53.3208C97.5333 52.8291 97.1896 52.1791 96.6687 51.7333C95.3 50.5687 93.8083 49.4062 92.2729 48.4354C91.4208 47.8979 90.3667 47.5479 89.4646 47.0916C89.1604 46.9375 88.6271 46.8583 88.4271 46.6041C87.9521 46 87.6958 45.2312 87.3292 44.5291C86.5625 43.0541 85.8083 41.4416 85.1312 39.8896C84.6667 38.8312 84.3646 37.7854 83.7875 36.8354C81.0146 32.2771 78.0292 29.525 73.4083 26.8208C72.425 26.2458 71.2396 26.0187 69.9875 25.7208C69.3146 25.6812 68.6437 25.6396 67.9708 25.5979C67.5604 25.425 67.1354 24.925 66.7479 24.6812C65.2167 23.7125 61.2875 21.6083 60.1542 24.375C59.4375 26.1208 61.225 27.825 61.8646 28.7104C62.3125 29.3312 62.8875 30.0271 63.2083 30.7271C63.4187 31.1854 63.4562 31.6458 63.6354 32.1312C64.0792 33.3271 64.7812 34.6896 65.3562 35.7958C65.6458 36.3562 65.9667 36.9437 66.3333 37.4437C66.5583 37.75 66.9437 37.8854 67.0062 38.3604C66.6292 38.8875 66.6083 39.7062 66.3958 40.3771C65.4417 43.3875 65.8021 47.1271 67.1896 49.3521C67.6146 50.0354 68.6187 51.5021 69.9979 50.9396C71.2042 50.4479 70.9354 48.925 71.2792 47.5812C71.3562 47.2771 71.3083 47.0541 71.4625 46.85C71.4625 46.8708 71.4625 46.8896 71.4625 46.9125C71.8292 47.6437 72.1938 48.3791 72.5625 49.1104C73.3771 50.4208 74.8208 51.7896 76.0417 52.7146C76.675 53.1937 77.175 54.0229 77.9958 54.3021C77.9958 54.2812 77.9958 54.2625 77.9958 54.2396C77.975 54.2396 77.9562 54.2396 77.9333 54.2396C77.775 53.9916 77.525 53.8896 77.3229 53.6896C76.8458 53.2208 76.3125 52.6396 75.9188 52.1021C74.8063 50.5916 73.8229 48.9375 72.9271 47.2166C72.5 46.3937 72.1271 45.4896 71.7667 44.6521C71.6271 44.3291 71.6292 43.8416 71.3396 43.675C70.9437 44.2875 70.3646 44.7833 70.0583 45.5062C69.5708 46.6625 69.5062 48.075 69.3271 49.5354C69.2187 49.5729 69.2667 49.5479 69.2042 49.5958C68.3542 49.3896 68.0542 48.5166 67.7375 47.7646C66.9375 45.8646 66.7896 42.8062 67.4937 40.6208C67.675 40.0541 68.4979 38.2729 68.1667 37.75C68.0083 37.2271 67.4833 36.925 67.1917 36.5271C66.8271 36.0354 66.4667 35.3854 66.2146 34.8166C65.5604 33.3354 64.9396 31.6125 64.25 30.1146C63.9208 29.3979 63.3646 28.675 62.9062 28.0396C62.4 27.3354 61.8312 26.8166 61.4396 25.9646C61.3 25.6625 61.1104 25.1771 61.3167 24.8646C61.3833 24.6541 61.475 24.5666 61.6833 24.4979C62.0375 24.2229 63.0229 24.5875 63.3937 24.7416C64.3729 25.1479 65.1896 25.5354 66.0187 26.0854C66.4167 26.35 66.8187 26.8604 67.3 27.0021C67.4833 27.0021 67.6667 27.0021 67.85 27.0021C68.7104 27.2 69.6729 27.0646 70.475 27.3083C71.8958 27.7396 73.1667 28.4104 74.3208 29.1396C77.8417 31.3625 80.7187 34.525 82.6875 38.3C83.0042 38.9083 83.1417 39.4875 83.4187 40.1312C83.9812 41.4312 84.6917 42.7687 85.25 44.0396C85.8083 45.3083 86.3542 46.5875 87.1437 47.6437C87.5604 48.1979 89.1646 48.4958 89.8917 48.8041C90.4021 49.0208 91.2396 49.2437 91.7229 49.5354C92.6479 50.0937 93.5438 50.7583 94.4083 51.3666C94.85 51.6729 96.1812 52.3416 96.2479 52.8937Z" fill="#00796B"/>
<path d="M68.9542 29.6312C68.5062 29.6229 68.1896 29.6791 67.8542 29.7541C67.8542 29.7749 67.8542 29.7937 67.8542 29.8166C67.875 29.8166 67.8937 29.8166 67.9167 29.8166C68.1312 30.2541 68.5062 30.5395 68.7708 30.9166C68.975 31.3437 69.1771 31.7708 69.3813 32.1979C69.4021 32.177 69.4208 32.1583 69.4417 32.1374C69.8187 31.8708 69.9937 31.4458 69.9917 30.7937C69.8396 30.6333 69.8167 30.4333 69.6854 30.2437C69.5104 29.9874 69.1729 29.8437 68.9542 29.6312Z" fill="#00796B"/>
</svg>
